# Blender 5.0.0
# www.blender.org
mtllib timage01.mtl
o oldWareHouse_01
v -4.000000 -0.000001 6.993629
v -4.000000 5.649698 -6.993628
v 1.296454 -0.000001 6.993629
v 3.421187 5.728005 -6.993628
v -3.421186 5.728006 -6.993628
v 2.531657 -0.000001 6.993629
v -3.421186 -0.000001 6.993629
v -3.421186 5.728004 6.993629
v 1.296454 2.286372 6.993629
v -3.421186 3.974304 6.993629
v 2.531657 2.286372 6.993629
v 3.030119 3.974306 -6.993628
v 4.000000 5.481113 6.993629
v 0.000001 6.789981 6.993629
v -4.000000 5.481116 -6.993628
v 3.421187 5.559421 6.993629
v -3.421186 5.559422 6.993629
v 3.030119 5.481116 -6.993628
v 4.000000 -0.000001 6.993629
v 3.421186 -0.000001 6.993629
v -0.000000 -0.000001 6.993629
v 0.000000 3.974304 6.993629
v 3.421187 3.974304 6.993629
v -3.421186 5.559424 -6.993628
v 0.000001 6.789983 -6.993628
v 0.319764 5.481116 -6.993628
v -0.319763 5.481116 -6.993628
v -0.000000 -0.000001 6.842029
v -3.421186 -0.000001 6.842029
v -3.421186 3.974305 6.842029
v 0.000000 3.974304 6.842029
v 2.531657 -0.000001 6.842029
v 1.296454 -0.000001 6.842029
v 1.296454 2.286372 6.842029
v 2.531657 2.286372 6.842029
v 0.000000 0.000001 -6.993629
v -3.421186 0.000001 -6.993629
v 3.421186 0.000001 -6.993629
v -3.030119 3.974307 -6.993628
v 4.000000 5.481116 -6.993628
v -3.030118 5.481116 -6.993628
v 3.421187 5.559423 -6.993628
v 3.421187 3.974306 -6.993628
v -3.421186 3.974307 -6.993628
v -0.319763 3.974307 -6.993628
v 0.319764 3.974307 -6.993628
v 0.000000 3.974307 -6.993628
v 0.000000 5.481116 -6.993628
v -4.000000 5.649695 6.993629
v -4.000000 0.000001 -6.993629
v 0.000001 6.958563 6.993629
v 0.000001 6.958565 -6.993628
v -4.000000 3.974305 6.993629
v -4.000000 3.974307 -6.993628
v -4.000000 5.481114 6.993629
v -4.000000 1.364937 -2.452741
v -4.000000 1.364938 -4.540887
v -4.000000 1.364937 1.044073
v -4.000000 1.364937 -1.044073
v -4.000000 1.364936 4.540887
v -4.000000 1.364937 2.452741
v -4.000000 0.000001 -4.540887
v -4.000000 0.000001 -1.044073
v -4.000000 -0.000000 2.452741
v -4.000000 5.649696 2.452742
v -4.000000 5.649697 -1.044072
v -4.000000 5.649697 -4.540886
v 0.000001 6.854927 2.452742
v 0.000001 6.958564 -1.044072
v 0.000001 6.921256 -4.540886
v -3.421186 5.728005 -4.540886
v -3.421186 5.728005 -1.044072
v -3.421186 5.728004 2.452742
v -4.000000 3.974305 2.452742
v -4.000000 3.974305 4.540888
v -4.000000 3.974306 -1.044073
v -4.000000 3.974306 1.044074
v -4.000000 3.974307 -4.540887
v -4.000000 3.974306 -2.452740
v -4.000000 5.481115 2.452742
v -4.000000 5.481115 -1.044072
v -4.000000 5.481116 -4.540886
v 4.000000 5.649695 6.993629
v 4.000000 5.649697 -6.993628
v 3.421187 5.728003 6.993629
v 4.000000 3.974304 6.993629
v 4.000000 3.974306 -6.993628
v 4.000000 1.364937 -2.452741
v 4.000000 1.364937 -4.540887
v 4.000000 1.364936 1.044073
v 4.000000 1.364936 -1.044073
v 4.000000 1.364936 4.540887
v 4.000000 1.364936 2.452741
v 4.000000 0.000001 -6.993629
v 4.000000 0.000000 -4.540887
v 4.000000 -0.000000 -1.044073
v 4.000000 -0.000001 2.452741
v 4.000000 5.649695 2.452742
v 4.000000 5.649696 -1.044072
v 4.000000 5.649697 -4.540886
v 3.421187 5.728005 -4.540886
v 3.421187 5.728004 -1.044072
v 3.421187 5.728004 2.452742
v 4.000000 3.974305 2.452742
v 4.000000 3.974304 4.540888
v 4.000000 3.974305 -1.044073
v 4.000000 3.974305 1.044074
v 4.000000 3.974306 -4.540887
v 4.000000 3.974305 -2.452740
v 4.000000 5.481114 2.452742
v 4.000000 5.481115 -1.044072
v 4.000000 5.481115 -4.540886
vn -0.0000 -0.0000 1.0000
vn -0.0000 -0.0000 -1.0000
vn -0.0000 -1.0000 -0.0000
vn -1.0000 -0.0000 -0.0000
vn 1.0000 -0.0000 -0.0000
vn -0.1341 0.9910 -0.0000
vn -0.3384 0.9408 -0.0215
vn -0.3384 0.9409 0.0143
vn -0.3383 0.9406 0.0279
vn -0.3284 0.9445 0.0010
vn -0.3383 0.9410 -0.0099
vn -0.3384 0.9409 -0.0100
vn 0.1341 0.9910 -0.0000
vn 0.3129 0.9498 -0.0000
vn 0.3293 0.9442 -0.0000
vn 0.3284 0.9445 0.0010
vn 0.3383 0.9406 0.0279
vn 0.3383 0.9410 -0.0099
vn -0.3129 0.9498 -0.0000
vn -0.3293 0.9442 -0.0000
vn 0.3384 0.9408 -0.0215
vn 0.3384 0.9409 0.0143
vn 0.3384 0.9409 -0.0100
vt 0.002498 0.426297
vt 0.067241 0.386181
vt 0.002498 0.386181
vt 0.067241 0.385995
vt 0.003085 0.426879
vt 0.003085 0.385995
vt 0.237667 0.204255
vt 0.352899 0.001623
vt 0.237667 0.001623
vt 0.002320 0.426879
vt 0.002320 0.385995
vt 0.051108 0.498829
vt 0.352899 0.360936
vt 0.352899 0.593539
vt 0.051108 0.360936
vt 0.002950 0.001623
vt 0.051108 0.001623
vt 0.002950 0.360936
vt 0.051205 0.384252
vt 0.068122 0.002483
vt 0.051205 0.002483
vt 0.595662 0.996642
vt 0.999332 0.664304
vt 0.999332 0.996642
vt 0.067241 0.426879
vt 0.352828 0.385995
vt 0.352828 0.426879
vt 0.352081 0.386181
vt 0.067241 0.426297
vt 0.352081 0.426297
vt 0.002950 0.492115
vt 0.131765 0.204255
vt 0.999332 0.664304
vt 0.999332 0.996642
vt 0.003517 0.598747
vt 0.244384 0.999584
vt 0.003517 0.999584
vt 0.243057 0.602700
vt 0.597124 0.998928
vt 0.243057 0.998928
vt 0.049550 0.255779
vt 0.066467 0.000643
vt 0.049550 0.000643
vt 0.051205 0.144085
vt 0.068122 0.006249
vt 0.051205 0.006249
vt 0.049550 0.417629
vt 0.066467 0.255779
vt 0.066467 0.417629
vt 0.051108 0.348711
vt 0.002950 0.348711
vt 0.002950 0.492008
vt 0.084016 0.492008
vt 0.084016 0.348711
vt 0.318850 0.492008
vt 0.051108 0.498724
vt 0.084028 0.492008
vt 0.318862 0.492008
vt 0.352899 0.492008
vt 0.318850 0.348711
vt 0.352899 0.348711
vt 0.318862 0.348711
vt 0.084028 0.348711
vt 0.266888 0.326763
vt 0.003748 0.435355
vt 0.266888 0.435355
vt 0.354464 0.326763
vt 0.090620 0.326763
vt 0.003748 0.326763
vt 0.357155 0.612588
vt 0.617366 0.263583
vt 0.617366 0.612588
vt 0.003236 0.595558
vt 0.192997 0.305885
vt 0.003236 0.280558
vt 0.003236 0.595461
vt 0.111833 0.305811
vt 0.003236 0.305840
vt 0.003236 0.595390
vt 0.111777 0.305745
vt 0.003236 0.305769
vt 0.003236 0.595342
vt 0.192022 0.280348
vt 0.003236 0.305721
vt 0.192956 0.151809
vt 0.003236 0.006017
vt 0.003236 0.151591
vt 0.192073 0.005811
vt 0.357155 0.263583
vt 0.192980 0.326763
vt 0.003748 0.435355
vt 0.192980 0.435355
vt 0.111743 0.127045
vt 0.003236 0.127078
vt 0.111793 0.127125
vt 0.003236 0.127155
vt 0.003748 0.435355
vt 0.354464 0.435355
vt 0.090620 0.435355
vt 0.354464 0.435355
vt 0.354063 0.595461
vt 0.354040 0.305840
vt 0.272898 0.595390
vt 0.272878 0.305769
vt 0.272832 0.595342
vt 0.272825 0.305721
vt 0.273115 0.127155
vt 0.273093 0.005917
vt 0.112071 0.127201
vt 0.272840 0.127078
vt 0.272815 0.005836
vt 0.272818 0.126983
vt 0.272769 0.005724
vt 0.356158 0.001438
vt 0.616245 0.258208
vt 0.356158 0.258208
vt 0.616245 0.001438
vt 0.003236 0.005917
vt 0.003236 0.005836
vt 0.003236 0.005724
vt 0.191967 0.005549
vt 0.353978 0.005917
vt 0.003236 0.005531
vt 0.068122 0.384252
vt 0.595662 0.664304
vt 0.131765 0.001623
vt 0.595662 0.664304
vt 0.244384 0.598747
vt 0.597124 0.602700
vt 0.068122 0.144085
vt 0.090620 0.326763
vt 0.192021 0.595339
vt 0.616245 0.001438
vt 0.356158 0.001438
s 1
usemtl Material.001
f 83/1/1 16/2/1 13/3/1
f 42/4/2 84/5/2 40/6/2
f 17/2/1 49/1/1 55/3/1
f 9/7/1 21/8/1 3/9/1
f 2/10/2 24/4/2 15/11/2
f 17/12/1 22/13/1 14/14/1
f 10/15/1 1/16/1 7/17/1
f 22/13/1 16/12/1 14/14/1
f 86/18/1 20/17/1 19/16/1
f 10/19/3 31/20/3 22/21/3
f 45/22/2 41/23/2 27/24/2
f 4/25/2 25/26/2 52/27/2
f 14/28/1 85/29/1 51/30/1
f 25/26/2 5/25/2 52/27/2
f 8/29/1 14/28/1 51/30/1
f 10/15/1 55/31/1 53/18/1
f 13/31/1 23/15/1 86/18/1
f 11/32/1 20/17/1 23/15/1
f 9/7/1 23/15/1 22/13/1
f 12/22/2 26/33/2 18/34/2
f 33/35/1 35/36/1 34/37/1
f 29/38/1 31/39/1 30/40/1
f 11/41/4 32/42/4 6/43/4
f 9/44/3 35/45/3 11/46/3
f 22/47/4 28/42/4 21/43/4
f 3/43/5 34/48/5 9/41/5
f 7/43/5 30/49/5 10/47/5
f 43/50/2 94/16/2 38/17/2
f 54/51/2 37/17/2 50/16/2
f 15/52/2 44/50/2 54/51/2
f 43/50/2 40/52/2 87/51/2
f 18/53/2 43/50/2 12/54/2
f 26/55/2 42/56/2 18/53/2
f 12/54/2 38/17/2 36/8/2
f 41/57/2 44/50/2 24/56/2
f 27/58/2 24/56/2 25/14/2
f 48/59/2 27/58/2 25/14/2
f 48/59/2 46/60/2 47/61/2
f 27/58/2 47/61/2 45/62/2
f 26/55/2 48/59/2 25/14/2
f 37/17/2 44/50/2 39/63/2
f 67/64/6 72/65/6 71/66/6
f 81/67/4 65/68/4 66/67/4
f 82/64/4 66/69/4 67/64/4
f 68/70/7 8/71/7 51/72/7
f 55/73/4 75/74/4 53/75/4
f 80/76/4 77/77/4 74/78/4
f 81/79/4 79/80/4 76/81/4
f 82/82/4 54/83/4 78/84/4
f 53/75/4 60/85/4 1/86/4
f 57/87/4 54/83/4 50/88/4
f 5/89/8 70/72/8 52/70/8
f 72/89/9 68/72/9 69/70/9
f 67/69/4 15/90/4 82/69/4
f 2/90/6 71/91/6 5/92/6
f 76/81/4 56/93/4 59/94/4
f 74/78/4 58/95/4 61/96/4
f 80/67/4 49/69/4 65/67/4
f 65/67/6 8/97/6 73/98/6
f 66/67/6 73/99/6 72/100/6
f 80/101/4 74/102/4 75/74/4
f 81/103/4 76/104/4 77/77/4
f 82/105/4 78/106/4 79/80/4
f 61/107/4 64/108/4 60/109/4
f 59/110/4 63/111/4 58/95/4
f 57/112/4 62/113/4 56/93/4
f 70/70/10 72/71/11 69/72/12
f 57/114/4 79/115/4 78/116/4
f 59/114/4 77/115/4 76/116/4
f 61/117/4 75/116/4 74/115/4
f 64/118/4 58/95/4 63/111/4
f 63/119/4 56/93/4 62/113/4
f 62/120/4 57/87/4 50/121/4
f 1/86/4 60/85/4 64/122/4
f 102/65/13 100/64/13 101/66/13
f 98/68/5 111/67/5 99/67/5
f 99/69/5 112/64/5 100/64/5
f 68/70/14 85/71/14 103/89/14
f 105/74/5 13/73/5 86/75/5
f 107/77/5 110/76/5 104/78/5
f 109/80/5 111/79/5 106/81/5
f 87/83/5 112/82/5 108/84/5
f 92/85/5 86/75/5 19/86/5
f 89/87/5 87/83/5 108/84/5
f 4/89/15 70/72/16 101/71/15
f 68/72/17 102/89/17 69/70/17
f 40/90/5 100/69/5 112/69/5
f 101/91/13 84/90/13 4/92/13
f 88/93/5 106/81/5 91/94/5
f 90/95/5 104/78/5 93/96/5
f 83/69/5 110/67/5 98/67/5
f 85/97/13 98/67/13 103/98/13
f 103/99/13 99/67/13 102/100/13
f 110/101/5 105/74/5 104/102/5
f 111/103/5 107/77/5 106/104/5
f 112/105/5 109/80/5 108/106/5
f 93/107/5 92/109/5 97/108/5
f 91/110/5 90/95/5 96/111/5
f 89/112/5 88/93/5 95/113/5
f 70/70/16 102/71/18 101/89/15
f 109/115/5 89/114/5 108/116/5
f 107/115/5 91/114/5 106/116/5
f 105/116/5 93/117/5 104/115/5
f 97/118/5 90/95/5 93/96/5
f 96/119/5 88/93/5 91/94/5
f 95/120/5 94/88/5 89/87/5
f 19/123/5 97/122/5 92/85/5
f 83/1/1 85/29/1 16/2/1
f 42/4/2 4/25/2 84/5/2
f 17/2/1 8/29/1 49/1/1
f 9/7/1 22/13/1 21/8/1
f 2/10/2 5/25/2 24/4/2
f 17/12/1 10/15/1 22/13/1
f 10/15/1 53/18/1 1/16/1
f 22/13/1 23/15/1 16/12/1
f 86/18/1 23/15/1 20/17/1
f 10/19/3 30/124/3 31/20/3
f 45/22/2 39/125/2 41/23/2
f 4/25/2 42/4/2 25/26/2
f 14/28/1 16/2/1 85/29/1
f 25/26/2 24/4/2 5/25/2
f 8/29/1 17/2/1 14/28/1
f 10/15/1 17/12/1 55/31/1
f 13/31/1 16/12/1 23/15/1
f 11/32/1 6/126/1 20/17/1
f 9/7/1 11/32/1 23/15/1
f 12/22/2 46/127/2 26/33/2
f 33/35/1 32/128/1 35/36/1
f 29/38/1 28/129/1 31/39/1
f 11/41/4 35/48/4 32/42/4
f 9/44/3 34/130/3 35/45/3
f 22/47/4 31/49/4 28/42/4
f 3/43/5 33/42/5 34/48/5
f 7/43/5 29/42/5 30/49/5
f 43/50/2 87/51/2 94/16/2
f 54/51/2 44/50/2 37/17/2
f 15/52/2 24/56/2 44/50/2
f 43/50/2 42/56/2 40/52/2
f 18/53/2 42/56/2 43/50/2
f 26/55/2 25/14/2 42/56/2
f 36/8/2 47/61/2 46/60/2
f 12/54/2 43/50/2 38/17/2
f 36/8/2 46/60/2 12/54/2
f 41/57/2 39/63/2 44/50/2
f 27/58/2 41/57/2 24/56/2
f 48/59/2 26/55/2 46/60/2
f 27/58/2 48/59/2 47/61/2
f 47/61/2 36/8/2 45/62/2
f 36/8/2 37/17/2 39/63/2
f 45/62/2 36/8/2 39/63/2
f 67/64/6 66/69/6 72/65/6
f 81/67/4 80/131/4 65/68/4
f 82/64/4 81/69/4 66/69/4
f 68/70/19 73/89/19 8/71/19
f 55/73/4 80/101/4 75/74/4
f 80/76/4 81/103/4 77/77/4
f 81/79/4 82/105/4 79/80/4
f 82/82/4 15/132/4 54/83/4
f 53/75/4 75/74/4 60/85/4
f 57/87/4 78/84/4 54/83/4
f 5/89/20 71/71/20 70/72/10
f 72/89/19 73/71/19 68/72/19
f 67/69/4 2/90/4 15/90/4
f 2/90/6 67/69/6 71/91/6
f 76/81/4 79/80/4 56/93/4
f 74/78/4 77/77/4 58/95/4
f 80/67/4 55/69/4 49/69/4
f 65/67/6 49/69/6 8/97/6
f 66/67/6 65/68/6 73/99/6
f 70/70/10 71/89/20 72/71/11
f 57/114/4 56/133/4 79/115/4
f 59/114/4 58/133/4 77/115/4
f 61/117/4 60/134/4 75/116/4
f 64/118/4 61/96/4 58/95/4
f 63/119/4 59/94/4 56/93/4
f 102/65/13 99/69/13 100/64/13
f 98/68/5 110/131/5 111/67/5
f 99/69/5 111/69/5 112/64/5
f 68/70/21 51/72/21 85/71/21
f 105/74/5 110/101/5 13/73/5
f 107/77/5 111/103/5 110/76/5
f 109/80/5 112/105/5 111/79/5
f 87/83/5 40/132/5 112/82/5
f 92/85/5 105/74/5 86/75/5
f 89/87/5 94/88/5 87/83/5
f 4/89/22 52/70/22 70/72/22
f 68/72/14 103/71/14 102/89/14
f 40/90/5 84/90/5 100/69/5
f 101/91/13 100/69/13 84/90/13
f 88/93/5 109/80/5 106/81/5
f 90/95/5 107/77/5 104/78/5
f 83/69/5 13/69/5 110/67/5
f 85/97/13 83/69/13 98/67/13
f 103/99/13 98/68/13 99/67/13
f 70/70/16 69/72/23 102/71/18
f 109/115/5 88/133/5 89/114/5
f 107/115/5 90/133/5 91/114/5
f 105/116/5 92/134/5 93/117/5
f 97/118/5 96/111/5 90/95/5
f 96/119/5 95/113/5 88/93/5
