# Blender 4.5.3 LTS
# www.blender.org
mtllib BoxS.mtl
o 290x170x190_3
v 14.129308 0.370689 8.499999
v 14.129308 18.629311 8.500003
v -14.129308 18.629311 8.500003
v -14.129308 0.370689 8.499999
v 14.499998 0.370694 -8.129309
v 14.499998 18.629313 -8.129305
v 14.499998 18.629311 8.129313
v 14.499998 0.370689 8.129309
v 14.129308 19.000002 -8.129305
v -14.129308 19.000002 -8.129305
v -14.129308 19.000000 8.129313
v 14.129308 19.000000 8.129313
v -14.499998 0.370689 8.129309
v -14.499998 18.629311 8.129313
v -14.499998 18.629313 -8.129305
v -14.499998 0.370694 -8.129309
v -14.129308 0.370694 -8.500002
v -14.129308 18.629313 -8.499998
v 14.129308 18.629313 -8.499998
v 14.129308 0.370694 -8.500002
v -14.129308 -0.000000 8.129309
v -14.129308 0.108575 8.391424
v -14.343326 0.156673 8.343328
v -14.391427 0.108575 8.129309
v -14.391427 0.370691 8.391424
v -14.129308 18.891426 8.391428
v -14.343326 18.843327 8.343332
v -14.391427 18.629311 8.391428
v -14.391427 18.891426 8.129313
v -14.129308 0.000003 -8.129309
v -14.391427 0.108578 -8.129309
v -14.343326 0.156677 -8.343328
v -14.129308 0.108578 -8.391427
v -14.391427 0.370695 -8.391427
v -14.129308 18.891428 -8.391423
v -14.343326 18.843328 -8.343324
v -14.391427 18.891428 -8.129305
v -14.391427 18.629313 -8.391423
v 14.129308 -0.000000 8.129309
v 14.391427 0.108575 8.129309
v 14.343326 0.156673 8.343328
v 14.129308 0.108575 8.391424
v 14.391427 0.370691 8.391424
v 14.129308 18.891426 8.391428
v 14.343326 18.843327 8.343332
v 14.391427 18.891426 8.129313
v 14.391427 18.629311 8.391428
v 14.129308 0.000003 -8.129309
v 14.129308 0.108578 -8.391427
v 14.343326 0.156677 -8.343328
v 14.391427 0.108578 -8.129309
v 14.391427 0.370695 -8.391427
v 14.391427 18.891428 -8.129305
v 14.343326 18.843328 -8.343324
v 14.129308 18.891428 -8.391423
v 14.391427 18.629313 -8.391423
vn 0.0039 0.0059 1.0000
vn -0.0039 -0.0059 1.0000
vn 0.0038 -0.0059 1.0000
vn 1.0000 0.0059 0.0067
vn 1.0000 -0.0059 -0.0066
vn 1.0000 0.0060 -0.0066
vn 0.0039 1.0000 -0.0066
vn -0.0039 1.0000 0.0066
vn 0.0039 1.0000 0.0066
vn -1.0000 0.0059 -0.0067
vn -1.0000 -0.0059 0.0066
vn -1.0000 0.0059 0.0066
vn 0.0039 -0.0059 -1.0000
vn -0.0039 0.0059 -1.0000
vn 0.0038 0.0059 -1.0000
vn -0.0039 -1.0000 0.0066
vn -0.5773 -0.5774 0.5774
vn -0.7071 -0.7071 0.0049
vn -0.0028 -0.7070 0.7072
vn -0.0038 0.0059 1.0000
vn -0.5773 0.5774 0.5774
vn -0.7071 0.0044 0.7071
vn -0.0028 0.7071 0.7071
vn -0.0039 -1.0000 -0.0066
vn -0.5773 -0.5774 -0.5773
vn -0.0028 -0.7071 -0.7071
vn -1.0000 -0.0059 -0.0067
vn -0.7070 -0.0043 -0.7072
vn -0.0039 -0.0059 -1.0000
vn -0.0039 1.0000 -0.0066
vn -0.5773 0.5774 -0.5773
vn -0.7071 0.7071 -0.0049
vn -0.0028 0.7071 -0.7071
vn 0.5773 -0.5774 0.5774
vn 0.0039 -1.0000 0.0066
vn 0.7072 -0.7070 0.0049
vn 1.0000 -0.0059 0.0066
vn 0.0028 -0.7071 0.7071
vn 0.5773 0.5774 0.5774
vn 0.0028 0.7070 0.7072
vn 0.7072 0.0044 0.7070
vn 0.5773 -0.5774 -0.5773
vn 0.0039 -1.0000 -0.0066
vn 0.0028 -0.7071 -0.7071
vn 0.7071 -0.0044 -0.7071
vn 0.5773 0.5774 -0.5773
vn 0.7071 0.7071 -0.0048
vn 0.0028 0.7071 -0.7071
vn -0.7071 -0.7071 -0.0049
vn -0.7071 -0.0043 0.7071
vn -0.7071 0.7071 0.0049
vn -0.7071 0.0044 -0.7071
vn 0.7071 0.0044 -0.7071
vn 0.7071 -0.7071 -0.0049
vn 0.7071 0.7071 0.0049
vn 0.7071 -0.0044 0.7071
vt 0.305190 0.556146
vt 0.491780 0.676708
vt 0.305189 0.676707
vt 0.301442 0.556146
vt 0.194087 0.676707
vt 0.194087 0.556145
vt 0.351782 0.996389
vt 0.164811 0.888807
vt 0.351792 0.888813
vt 0.602883 0.556147
vt 0.495528 0.676708
vt 0.495528 0.556147
vt 0.190340 0.676707
vt 0.003748 0.556147
vt 0.190339 0.556145
vt 0.556008 0.843354
vt 0.557470 0.841898
vt 0.557765 0.843228
vt 0.556482 0.839764
vt 0.556141 0.841603
vt 0.559614 0.842888
vt 0.164342 0.885223
vt 0.163357 0.887354
vt 0.162295 0.886293
vt 0.164681 0.887059
vt 0.161224 0.888340
vt 0.556002 0.950927
vt 0.557456 0.952380
vt 0.556132 0.952675
vt 0.559588 0.951394
vt 0.558518 0.953441
vt 0.556471 0.954510
vt 0.164801 0.996383
vt 0.163342 0.997841
vt 0.163046 0.996513
vt 0.164331 0.999973
vt 0.164671 0.998135
vt 0.161200 0.996858
vt 0.367557 0.841899
vt 0.369019 0.843355
vt 0.367262 0.843229
vt 0.365413 0.842888
vt 0.368546 0.839764
vt 0.368886 0.841603
vt 0.353251 0.887355
vt 0.351923 0.887061
vt 0.352262 0.885223
vt 0.354313 0.886289
vt 0.355394 0.888338
vt 0.367572 0.952380
vt 0.369027 0.950927
vt 0.368896 0.952675
vt 0.368557 0.954510
vt 0.366511 0.953442
vt 0.365440 0.951395
vt 0.353237 0.997842
vt 0.353531 0.996517
vt 0.355369 0.996856
vt 0.352252 0.999973
vt 0.351912 0.998137
vt 0.557750 0.951055
vt 0.491781 0.556147
vt 0.493654 0.676708
vt 0.163063 0.888679
vt 0.001875 0.676708
vt 0.001874 0.556147
vt 0.000000 0.556147
vt 0.192213 0.556146
vt 0.192213 0.676707
vt 0.367278 0.951056
vt 0.353548 0.888683
vt 0.303316 0.556146
vt 0.303316 0.676707
vt 0.301442 0.676707
vt 0.602883 0.676708
vt 0.003749 0.676708
vt 0.558535 0.840833
vt 0.162280 0.998907
vt 0.366492 0.840833
vt 0.354298 0.998903
vt 0.493655 0.556147
vt 0.000002 0.676708
s 1
usemtl Cardboard_Box_Mat
f 2/1/1 4/2/2 1/3/3
f 7/4/4 5/5/5 6/6/6
f 9/7/7 11/8/8 12/9/9
f 15/10/10 13/11/11 14/12/12
f 20/13/13 18/14/14 19/15/15
f 21/16/16 23/17/17 24/18/18
f 4/19/2 23/17/17 22/20/19
f 23/17/17 13/21/11 24/18/18
f 3/22/20 27/23/21 28/24/22
f 11/8/8 27/23/21 26/25/23
f 27/23/21 14/26/12 28/24/22
f 30/27/24 32/28/25 33/29/26
f 32/28/25 16/30/27 34/31/28
f 17/32/29 32/28/25 34/31/28
f 10/33/30 36/34/31 37/35/32
f 18/36/14 36/34/31 35/37/33
f 36/34/31 15/38/10 37/35/32
f 41/39/34 39/40/35 40/41/36
f 8/42/37 41/39/34 40/41/36
f 41/39/34 1/43/3 42/44/38
f 45/45/39 12/9/9 44/46/40
f 45/45/39 2/47/1 47/48/41
f 7/49/4 45/45/39 47/48/41
f 50/50/42 48/51/43 49/52/44
f 50/50/42 20/53/13 52/54/45
f 5/55/5 50/50/42 52/54/45
f 54/56/46 9/7/7 53/57/47
f 6/58/6 54/56/46 53/57/47
f 54/56/46 19/59/15 55/60/48
f 21/16/16 31/61/49 30/27/24
f 24/18/18 16/30/27 31/61/49
f 3/62/20 25/63/50 4/2/2
f 25/63/50 14/12/12 13/11/11
f 10/33/30 29/64/51 11/8/8
f 37/35/32 14/26/12 29/64/51
f 18/14/14 34/65/28 38/66/52
f 34/65/28 15/67/10 38/66/52
f 48/51/43 33/29/26 49/52/44
f 49/52/44 17/32/29 20/53/13
f 55/60/48 10/33/30 9/7/7
f 19/59/15 35/37/33 55/60/48
f 5/5/5 56/68/53 6/6/6
f 52/69/45 19/15/15 56/68/53
f 40/41/36 48/51/43 51/70/54
f 8/42/37 51/70/54 5/55/5
f 46/71/55 9/7/7 12/9/9
f 6/58/6 46/71/55 7/49/4
f 47/72/41 1/3/3 43/73/56
f 7/4/4 43/73/56 8/74/37
f 42/44/38 21/16/16 39/40/35
f 1/43/3 22/20/19 42/44/38
f 12/9/9 26/25/23 44/46/40
f 44/46/40 3/22/20 2/47/1
f 39/40/35 30/27/24 48/51/43
f 2/1/1 3/62/20 4/2/2
f 7/4/4 8/74/37 5/5/5
f 9/7/7 10/33/30 11/8/8
f 15/10/10 16/75/27 13/11/11
f 20/13/13 17/76/29 18/14/14
f 21/16/16 22/20/19 23/17/17
f 4/19/2 25/77/50 23/17/17
f 23/17/17 25/77/50 13/21/11
f 3/22/20 26/25/23 27/23/21
f 11/8/8 29/64/51 27/23/21
f 27/23/21 29/64/51 14/26/12
f 30/27/24 31/61/49 32/28/25
f 32/28/25 31/61/49 16/30/27
f 17/32/29 33/29/26 32/28/25
f 10/33/30 35/37/33 36/34/31
f 18/36/14 38/78/52 36/34/31
f 36/34/31 38/78/52 15/38/10
f 41/39/34 42/44/38 39/40/35
f 8/42/37 43/79/56 41/39/34
f 41/39/34 43/79/56 1/43/3
f 45/45/39 46/71/55 12/9/9
f 45/45/39 44/46/40 2/47/1
f 7/49/4 46/71/55 45/45/39
f 50/50/42 51/70/54 48/51/43
f 50/50/42 49/52/44 20/53/13
f 5/55/5 51/70/54 50/50/42
f 54/56/46 55/60/48 9/7/7
f 6/58/6 56/80/53 54/56/46
f 54/56/46 56/80/53 19/59/15
f 21/16/16 24/18/18 31/61/49
f 24/18/18 13/21/11 16/30/27
f 3/62/20 28/81/22 25/63/50
f 25/63/50 28/81/22 14/12/12
f 10/33/30 37/35/32 29/64/51
f 37/35/32 15/38/10 14/26/12
f 18/14/14 17/76/29 34/65/28
f 34/65/28 16/82/27 15/67/10
f 48/51/43 30/27/24 33/29/26
f 49/52/44 33/29/26 17/32/29
f 55/60/48 35/37/33 10/33/30
f 19/59/15 18/36/14 35/37/33
f 5/5/5 52/69/45 56/68/53
f 52/69/45 20/13/13 19/15/15
f 40/41/36 39/40/35 48/51/43
f 8/42/37 40/41/36 51/70/54
f 46/71/55 53/57/47 9/7/7
f 6/58/6 53/57/47 46/71/55
f 47/72/41 2/1/1 1/3/3
f 7/4/4 47/72/41 43/73/56
f 42/44/38 22/20/19 21/16/16
f 1/43/3 4/19/2 22/20/19
f 12/9/9 11/8/8 26/25/23
f 44/46/40 26/25/23 3/22/20
f 39/40/35 21/16/16 30/27/24
