# Blender 4.5.3 LTS
# www.blender.org
mtllib BoxL.mtl
o 290x290x400_1
v -1.473750 0.026251 -1.087500
v -1.473750 2.148751 -1.087500
v 1.473750 2.148750 -1.087500
v 1.473750 0.026250 -1.087500
v -1.500000 0.026251 1.061249
v -1.500000 2.148750 1.061250
v -1.500000 2.148751 -1.061250
v -1.500000 0.026251 -1.061250
v -1.473750 2.174999 1.061250
v 1.473750 2.174999 1.061250
v 1.473750 2.175000 -1.061250
v -1.473750 2.175000 -1.061250
v 1.500000 0.026250 -1.061250
v 1.500000 2.148750 -1.061250
v 1.500000 2.148750 1.061250
v 1.500000 0.026250 1.061249
v 1.473750 0.026250 1.087499
v 1.473750 2.148750 1.087500
v -1.473750 2.148750 1.087500
v -1.473750 0.026251 1.087499
v 1.473750 0.000000 -1.061250
v 1.473750 0.007689 -1.079811
v 1.488905 0.011095 -1.076406
v 1.492311 0.007689 -1.061250
v 1.492311 0.026250 -1.079811
v 1.473750 2.167311 -1.079811
v 1.488906 2.163905 -1.076405
v 1.492311 2.148750 -1.079811
v 1.492311 2.167311 -1.061250
v 1.473750 0.000000 1.061249
v 1.492311 0.007689 1.061249
v 1.488905 0.011095 1.076405
v 1.473750 0.007689 1.079811
v 1.492311 0.026250 1.079811
v 1.473750 2.167310 1.079811
v 1.488906 2.163905 1.076405
v 1.492311 2.167310 1.061250
v 1.492311 2.148750 1.079811
v -1.473750 0.000001 -1.061250
v -1.492311 0.007689 -1.061250
v -1.488906 0.011095 -1.076406
v -1.473750 0.007689 -1.079811
v -1.492311 0.026251 -1.079811
v -1.473750 2.167311 -1.079811
v -1.488905 2.163906 -1.076405
v -1.492311 2.167311 -1.061250
v -1.492311 2.148751 -1.079811
v -1.473750 0.000001 1.061249
v -1.473750 0.007689 1.079811
v -1.488906 0.011095 1.076405
v -1.492311 0.007689 1.061249
v -1.492311 0.026251 1.079811
v -1.492311 2.167311 1.061250
v -1.488905 2.163905 1.076405
v -1.473750 2.167311 1.079811
v -1.492311 2.148750 1.079811
vn -0.0026 -0.0037 -1.0000
vn -0.0026 0.0036 -1.0000
vn 0.0026 0.0037 -1.0000
vn 0.0026 -0.0036 -1.0000
vn -1.0000 0.0036 0.0036
vn -1.0000 0.0036 -0.0036
vn -1.0000 -0.0036 -0.0036
vn -1.0000 -0.0036 0.0036
vn -0.0026 1.0000 -0.0036
vn -0.0026 1.0000 0.0036
vn 0.0026 1.0000 0.0037
vn 0.0026 1.0000 -0.0036
vn 1.0000 0.0036 -0.0036
vn 1.0000 0.0036 0.0036
vn 1.0000 -0.0036 0.0036
vn 1.0000 -0.0036 -0.0036
vn -0.0026 0.0036 1.0000
vn -0.0026 -0.0036 1.0000
vn 0.0026 -0.0037 1.0000
vn 0.0026 0.0036 1.0000
vn 0.0026 -1.0000 -0.0036
vn 0.0020 -0.7071 -0.7071
vn 0.5774 -0.5774 -0.5773
vn 0.7071 -0.7071 -0.0026
vn 0.7071 -0.0026 -0.7071
vn 0.0020 0.7070 -0.7072
vn 0.5774 0.5773 -0.5773
vn 0.7071 0.0026 -0.7071
vn 0.7071 0.7071 -0.0026
vn 0.0021 -0.7071 0.7071
vn 0.0027 -1.0000 0.0036
vn 0.7071 -0.7071 0.0026
vn 0.5773 -0.5773 0.5774
vn 0.7070 -0.0026 0.7072
vn 0.0020 0.7070 0.7072
vn 0.5773 0.5774 0.5774
vn 0.7071 0.7071 0.0026
vn 0.7071 0.0026 0.7071
vn -0.7070 -0.7072 -0.0026
vn -0.5774 -0.5773 -0.5773
vn -0.0020 -0.7071 -0.7071
vn -0.0026 -1.0000 -0.0036
vn -0.7070 -0.0026 -0.7072
vn -0.5773 0.5774 -0.5773
vn -0.7071 0.7071 -0.0026
vn -0.0020 0.7071 -0.7071
vn -0.7071 0.0026 -0.7071
vn -0.5774 -0.5773 0.5774
vn -0.7071 -0.7071 0.0026
vn -0.0026 -1.0000 0.0036
vn -0.0020 -0.7071 0.7071
vn -0.7070 -0.0026 0.7072
vn -0.7071 0.7071 0.0026
vn -0.5773 0.5774 0.5774
vn -0.0020 0.7071 0.7071
vn -0.7070 0.0026 0.7072
vt 0.437318 0.000000
vt 0.437319 0.181639
vt 0.185078 0.181641
vt 0.185077 0.000002
vt 0.622396 0.181639
vt 0.440756 0.181639
vt 0.440756 0.000000
vt 0.622396 0.000000
vt 0.255882 0.690027
vt 0.255875 0.871910
vt 0.003294 0.871905
vt 0.003302 0.690022
vt 0.181639 0.181641
vt 0.000000 0.181641
vt 0.000000 0.000002
vt 0.181639 0.000002
vt 0.625833 0.181639
vt 0.625834 0.000000
vt 0.878075 0.000002
vt 0.878074 0.181641
vt 0.868795 0.559436
vt 0.868916 0.557830
vt 0.870133 0.558101
vt 0.870403 0.559318
vt 0.869228 0.556146
vt 0.871107 0.557126
vt 0.872093 0.559006
vt 0.002871 0.686739
vt 0.003183 0.688420
vt 0.001969 0.688690
vt 0.000997 0.687718
vt 0.001700 0.689904
vt 0.000017 0.689592
vt 0.868909 0.742917
vt 0.868790 0.741315
vt 0.870392 0.741434
vt 0.870122 0.742647
vt 0.871094 0.743619
vt 0.872074 0.741745
vt 0.869220 0.744599
vt 0.003175 0.873510
vt 0.001959 0.873241
vt 0.001687 0.872025
vt 0.002864 0.875194
vt 0.000986 0.874216
vt 0.000000 0.872340
vt 0.614602 0.559317
vt 0.614873 0.558100
vt 0.616089 0.557830
vt 0.616210 0.559434
vt 0.612914 0.559005
vt 0.613899 0.557126
vt 0.615777 0.556146
vt 0.257218 0.688691
vt 0.257489 0.689907
vt 0.256002 0.688422
vt 0.258190 0.687716
vt 0.256312 0.686738
vt 0.259176 0.689592
vt 0.614881 0.742646
vt 0.614611 0.741432
vt 0.616214 0.741314
vt 0.616094 0.742916
vt 0.613909 0.743618
vt 0.615783 0.744599
vt 0.612928 0.741744
vt 0.257477 0.872028
vt 0.257207 0.873242
vt 0.255994 0.873512
vt 0.259159 0.872340
vt 0.258179 0.874214
vt 0.256305 0.875193
vt 0.183358 0.181641
vt 0.183358 0.000002
vt 0.879794 0.000002
vt 0.879793 0.181641
vt 0.881514 0.000002
vt 0.881511 0.181641
vt 0.624115 0.000000
vt 0.624114 0.181639
vt 0.439037 0.000000
vt 0.439038 0.181639
s 1
usemtl Cardboard_Box_Mat.002
f 1/1/1 2/2/2 3/3/3 4/4/4
f 6/5/5 7/6/6 8/7/7 5/8/8
f 12/9/9 9/10/10 10/11/11 11/12/12
f 14/13/13 15/14/14 16/15/15 13/16/16
f 19/17/17 20/18/18 17/19/19 18/20/20
f 21/21/21 22/22/22 23/23/23 24/24/24
f 22/22/22 4/25/4 25/26/25 23/23/23
f 23/23/23 25/26/25 13/27/16 24/24/24
f 3/28/3 26/29/26 27/30/27 28/31/28
f 26/29/26 11/12/12 29/32/29 27/30/27
f 27/30/27 29/32/29 14/33/13 28/31/28
f 33/34/30 30/35/31 31/36/32 32/37/33
f 34/38/34 32/37/33 31/36/32 16/39/15
f 17/40/19 33/34/30 32/37/33 34/38/34
f 10/11/11 35/41/35 36/42/36 37/43/37
f 35/41/35 18/44/20 38/45/38 36/42/36
f 37/43/37 36/42/36 38/45/38 15/46/14
f 40/47/39 41/48/40 42/49/41 39/50/42
f 8/51/7 43/52/43 41/48/40 40/47/39
f 41/48/40 43/52/43 1/53/1 42/49/41
f 45/54/44 46/55/45 12/9/9 44/56/46
f 47/57/47 45/54/44 44/56/46 2/58/2
f 7/59/6 46/55/45 45/54/44 47/57/47
f 50/60/48 51/61/49 48/62/50 49/63/51
f 52/64/52 50/60/48 49/63/51 20/65/18
f 52/64/52 5/66/8 51/61/49 50/60/48
f 53/67/53 54/68/54 55/69/55 9/10/10
f 53/67/53 6/70/5 56/71/56 54/68/54
f 54/68/54 56/71/56 19/72/17 55/69/55
f 30/35/31 21/21/21 24/24/24 31/36/32
f 31/36/32 24/24/24 13/27/16 16/39/15
f 4/4/4 3/3/3 28/73/28 25/74/25
f 25/74/25 28/73/28 14/13/13 13/16/16
f 11/12/12 10/11/11 37/43/37 29/32/29
f 29/32/29 37/43/37 15/46/14 14/33/13
f 18/20/20 17/19/19 34/75/34 38/76/38
f 38/76/38 34/75/34 16/77/15 15/78/14
f 49/63/51 48/62/50 30/35/31 33/34/30
f 20/65/18 49/63/51 33/34/30 17/40/19
f 9/10/10 55/69/55 35/41/35 10/11/11
f 55/69/55 19/72/17 18/44/20 35/41/35
f 6/5/5 5/8/8 52/79/52 56/80/56
f 56/80/56 52/79/52 20/18/18 19/17/17
f 51/61/49 40/47/39 39/50/42 48/62/50
f 5/66/8 8/51/7 40/47/39 51/61/49
f 46/55/45 53/67/53 9/10/10 12/9/9
f 7/59/6 6/70/5 53/67/53 46/55/45
f 43/81/43 47/82/47 2/2/2 1/1/1
f 8/7/7 7/6/6 47/82/47 43/81/43
f 39/50/42 42/49/41 22/22/22 21/21/21
f 42/49/41 1/53/1 4/25/4 22/22/22
f 44/56/46 12/9/9 11/12/12 26/29/26
f 2/58/2 44/56/46 26/29/26 3/28/3
f 48/62/50 39/50/42 21/21/21 30/35/31
