# Blender 4.5.3 LTS
# www.blender.org
mtllib BoxL.mtl
o 290x290x400_1
v -19.650003 0.350012 -14.500008
v -19.649996 28.650009 -14.500000
v 19.650003 28.650005 -14.500000
v 19.649996 0.350008 -14.500008
v -20.000002 0.350004 14.149994
v -19.999994 28.650002 14.150002
v -19.999994 28.650009 -14.149998
v -20.000002 0.350012 -14.150005
v -19.649996 29.000000 14.150002
v 19.650003 28.999996 14.150002
v 19.650003 29.000004 -14.149998
v -19.649996 29.000008 -14.149998
v 19.999994 0.350008 -14.150005
v 20.000002 28.650005 -14.149998
v 20.000002 28.649998 14.150002
v 19.999994 0.350000 14.149994
v 19.649996 0.350000 14.499992
v 19.650003 28.649998 14.500000
v -19.649996 28.650002 14.500000
v -19.650003 0.350004 14.499992
v 19.649996 0.000008 -14.150005
v 19.649996 0.102522 -14.397491
v 19.852068 0.147934 -14.352077
v 19.897484 0.102522 -14.150005
v 19.897484 0.350008 -14.397491
v 19.650003 28.897490 -14.397483
v 19.852076 28.852077 -14.352069
v 19.897484 28.650005 -14.397483
v 19.897484 28.897490 -14.149998
v 19.649996 0.000000 14.149994
v 19.897484 0.102514 14.149994
v 19.852068 0.147926 14.352066
v 19.649996 0.102514 14.397476
v 19.897484 0.350000 14.397476
v 19.650003 28.897482 14.397484
v 19.852076 28.852070 14.352074
v 19.897484 28.897482 14.150002
v 19.897484 28.649998 14.397484
v -19.650003 0.000011 -14.150005
v -19.897484 0.102526 -14.150005
v -19.852076 0.147938 -14.352077
v -19.650003 0.102526 -14.397491
v -19.897484 0.350012 -14.397491
v -19.649996 28.897493 -14.397483
v -19.852068 28.852081 -14.352069
v -19.897484 28.897493 -14.149998
v -19.897484 28.650009 -14.397483
v -19.650003 0.000004 14.149994
v -19.650003 0.102518 14.397476
v -19.852076 0.147930 14.352066
v -19.897484 0.102518 14.149994
v -19.897484 0.350004 14.397476
v -19.897484 28.897486 14.150002
v -19.852068 28.852074 14.352074
v -19.649996 28.897486 14.397484
v -19.897484 28.650002 14.397484
vn -0.0026 0.0037 -1.0000
vn 0.0027 -0.0037 -1.0000
vn -0.0027 -0.0037 -1.0000
vn -1.0000 0.0037 -0.0037
vn -1.0000 -0.0037 0.0036
vn -1.0000 0.0036 0.0037
vn -0.0026 1.0000 0.0037
vn 0.0027 1.0000 -0.0037
vn -0.0027 1.0000 -0.0037
vn 1.0000 0.0036 0.0036
vn 1.0000 -0.0037 -0.0036
vn 1.0000 0.0036 -0.0037
vn -0.0027 0.0036 1.0000
vn 0.0027 -0.0036 1.0000
vn 0.0027 0.0036 1.0000
vn 0.0027 -1.0000 -0.0037
vn 0.5773 -0.5774 -0.5773
vn 0.7071 -0.7071 -0.0027
vn 0.0020 -0.7071 -0.7071
vn 0.0027 0.0037 -1.0000
vn 0.5774 0.5774 -0.5773
vn 0.7071 0.0027 -0.7071
vn 0.0020 0.7070 -0.7072
vn 0.0027 -1.0000 0.0036
vn 0.5773 -0.5774 0.5774
vn 0.0020 -0.7071 0.7071
vn 1.0000 -0.0036 0.0037
vn 0.7070 -0.0027 0.7072
vn 0.0027 1.0000 0.0037
vn 0.5774 0.5773 0.5773
vn 0.7071 0.7071 0.0027
vn 0.0020 0.7070 0.7072
vn -0.5774 -0.5774 -0.5773
vn -0.0027 -1.0000 -0.0037
vn -0.7070 -0.7072 -0.0027
vn -1.0000 -0.0036 -0.0037
vn -0.0020 -0.7071 -0.7071
vn -0.5773 0.5774 -0.5773
vn -0.0020 0.7071 -0.7071
vn -0.7071 0.0027 -0.7071
vn -0.5774 -0.5773 0.5774
vn -0.0027 -1.0000 0.0037
vn -0.0020 -0.7071 0.7071
vn -0.0027 -0.0036 1.0000
vn -0.7072 -0.0027 0.7071
vn -0.5773 0.5774 0.5774
vn -0.7072 0.7071 0.0027
vn -0.0020 0.7071 0.7071
vn 0.7071 -0.7071 0.0027
vn 0.7071 -0.0027 -0.7071
vn 0.7071 0.7071 -0.0027
vn 0.7071 0.0027 0.7071
vn -0.7070 0.0027 0.7072
vn -0.7071 -0.7071 0.0027
vn -0.7071 0.7071 -0.0027
vn -0.7071 -0.0027 -0.7071
vt 0.437319 0.181639
vt 0.185077 0.000002
vt 0.437318 0.000000
vt 0.440756 0.181639
vt 0.622396 0.000000
vt 0.622396 0.181639
vt 0.255875 0.871910
vt 0.003302 0.690022
vt 0.255882 0.690027
vt 0.000000 0.181641
vt 0.181639 0.000002
vt 0.181639 0.181641
vt 0.625833 0.181639
vt 0.878075 0.000002
vt 0.878074 0.181641
vt 0.868795 0.559436
vt 0.870133 0.558101
vt 0.870403 0.559318
vt 0.869228 0.556146
vt 0.868916 0.557830
vt 0.872093 0.559006
vt 0.002871 0.686739
vt 0.001969 0.688690
vt 0.000997 0.687718
vt 0.003183 0.688420
vt 0.000017 0.689592
vt 0.868790 0.741315
vt 0.870122 0.742647
vt 0.868909 0.742917
vt 0.872074 0.741745
vt 0.871094 0.743619
vt 0.869220 0.744599
vt 0.003294 0.871905
vt 0.001959 0.873241
vt 0.001687 0.872025
vt 0.002864 0.875194
vt 0.003175 0.873510
vt 0.000000 0.872340
vt 0.614873 0.558100
vt 0.616210 0.559434
vt 0.614602 0.559317
vt 0.612914 0.559005
vt 0.615777 0.556146
vt 0.616089 0.557830
vt 0.257218 0.688691
vt 0.256002 0.688422
vt 0.256312 0.686738
vt 0.258190 0.687716
vt 0.259176 0.689592
vt 0.614881 0.742646
vt 0.616214 0.741314
vt 0.616094 0.742916
vt 0.615783 0.744599
vt 0.613909 0.743618
vt 0.612928 0.741744
vt 0.257207 0.873242
vt 0.257477 0.872028
vt 0.259159 0.872340
vt 0.256305 0.875193
vt 0.255994 0.873512
vt 0.870392 0.741434
vt 0.185078 0.181641
vt 0.183358 0.000002
vt 0.183358 0.181641
vt 0.001700 0.689904
vt 0.879793 0.181641
vt 0.881514 0.000002
vt 0.881511 0.181641
vt 0.624114 0.181639
vt 0.624115 0.000000
vt 0.614611 0.741432
vt 0.257489 0.689907
vt 0.439038 0.181639
vt 0.439037 0.000000
vt 0.440756 0.000000
vt 0.000000 0.000002
vt 0.625834 0.000000
vt 0.871107 0.557126
vt 0.000986 0.874216
vt 0.613899 0.557126
vt 0.258179 0.874214
vt 0.879794 0.000002
s 1
usemtl Cardboard_Box_Mat
f 2/1/1 4/2/2 1/3/3
f 7/4/4 5/5/5 6/6/6
f 9/7/7 11/8/8 12/9/9
f 15/10/10 13/11/11 14/12/12
f 19/13/13 17/14/14 18/15/15
f 21/16/16 23/17/17 24/18/18
f 4/19/2 23/17/17 22/20/19
f 23/17/17 13/21/11 24/18/18
f 3/22/20 27/23/21 28/24/22
f 11/8/8 27/23/21 26/25/23
f 27/23/21 14/26/12 28/24/22
f 30/27/24 32/28/25 33/29/26
f 32/28/25 16/30/27 34/31/28
f 17/32/14 32/28/25 34/31/28
f 10/33/29 36/34/30 37/35/31
f 18/36/15 36/34/30 35/37/32
f 36/34/30 15/38/10 37/35/31
f 41/39/33 39/40/34 40/41/35
f 8/42/36 41/39/33 40/41/35
f 41/39/33 1/43/3 42/44/37
f 45/45/38 12/9/9 44/46/39
f 45/45/38 2/47/1 47/48/40
f 7/49/4 45/45/38 47/48/40
f 50/50/41 48/51/42 49/52/43
f 50/50/41 20/53/44 52/54/45
f 5/55/5 50/50/41 52/54/45
f 54/56/46 9/7/7 53/57/47
f 6/58/6 54/56/46 53/57/47
f 54/56/46 19/59/13 55/60/48
f 21/16/16 31/61/49 30/27/24
f 24/18/18 16/30/27 31/61/49
f 3/62/20 25/63/50 4/2/2
f 28/64/22 13/11/11 25/63/50
f 11/8/8 37/35/31 29/65/51
f 37/35/31 14/26/12 29/65/51
f 17/14/14 38/66/52 18/15/15
f 38/66/52 16/67/27 15/68/10
f 48/51/42 33/29/26 49/52/43
f 49/52/43 17/32/14 20/53/44
f 55/60/48 10/33/29 9/7/7
f 19/59/13 35/37/32 55/60/48
f 5/5/5 56/69/53 6/6/6
f 52/70/45 19/13/13 56/69/53
f 40/41/35 48/51/42 51/71/54
f 8/42/36 51/71/54 5/55/5
f 53/57/47 12/9/9 46/72/55
f 6/58/6 46/72/55 7/49/4
f 47/73/40 1/3/3 43/74/56
f 7/4/4 43/74/56 8/75/36
f 42/44/37 21/16/16 39/40/34
f 1/43/3 22/20/19 42/44/37
f 12/9/9 26/25/23 44/46/39
f 44/46/39 3/22/20 2/47/1
f 39/40/34 30/27/24 48/51/42
f 2/1/1 3/62/20 4/2/2
f 7/4/4 8/75/36 5/5/5
f 9/7/7 10/33/29 11/8/8
f 15/10/10 16/76/27 13/11/11
f 19/13/13 20/77/44 17/14/14
f 21/16/16 22/20/19 23/17/17
f 4/19/2 25/78/50 23/17/17
f 23/17/17 25/78/50 13/21/11
f 3/22/20 26/25/23 27/23/21
f 11/8/8 29/65/51 27/23/21
f 27/23/21 29/65/51 14/26/12
f 30/27/24 31/61/49 32/28/25
f 32/28/25 31/61/49 16/30/27
f 17/32/14 33/29/26 32/28/25
f 10/33/29 35/37/32 36/34/30
f 18/36/15 38/79/52 36/34/30
f 36/34/30 38/79/52 15/38/10
f 41/39/33 42/44/37 39/40/34
f 8/42/36 43/80/56 41/39/33
f 41/39/33 43/80/56 1/43/3
f 45/45/38 46/72/55 12/9/9
f 45/45/38 44/46/39 2/47/1
f 7/49/4 46/72/55 45/45/38
f 50/50/41 51/71/54 48/51/42
f 50/50/41 49/52/43 20/53/44
f 5/55/5 51/71/54 50/50/41
f 54/56/46 55/60/48 9/7/7
f 6/58/6 56/81/53 54/56/46
f 54/56/46 56/81/53 19/59/13
f 21/16/16 24/18/18 31/61/49
f 24/18/18 13/21/11 16/30/27
f 3/62/20 28/64/22 25/63/50
f 28/64/22 14/12/12 13/11/11
f 11/8/8 10/33/29 37/35/31
f 37/35/31 15/38/10 14/26/12
f 17/14/14 34/82/28 38/66/52
f 38/66/52 34/82/28 16/67/27
f 48/51/42 30/27/24 33/29/26
f 49/52/43 33/29/26 17/32/14
f 55/60/48 35/37/32 10/33/29
f 19/59/13 18/36/15 35/37/32
f 5/5/5 52/70/45 56/69/53
f 52/70/45 20/77/44 19/13/13
f 40/41/35 39/40/34 48/51/42
f 8/42/36 40/41/35 51/71/54
f 53/57/47 9/7/7 12/9/9
f 6/58/6 53/57/47 46/72/55
f 47/73/40 2/1/1 1/3/3
f 7/4/4 47/73/40 43/74/56
f 42/44/37 22/20/19 21/16/16
f 1/43/3 4/19/2 22/20/19
f 12/9/9 11/8/8 26/25/23
f 44/46/39 26/25/23 3/22/20
f 39/40/34 21/16/16 30/27/24
