# Blender 4.2.1 LTS
# www.blender.org
mtllib FridgeCocaCola.mtl
o Fridge_/_Coca-Cola
v -0.463294 1.348099 -0.740904
v -0.463294 0.880107 -0.740904
v 0.396603 1.348099 -0.740904
v 0.396603 0.880107 -0.740904
v -0.946302 0.002631 0.700758
v -0.946302 0.042632 0.740758
v -0.986302 0.042631 0.700758
v -0.946302 4.769758 0.740757
v -0.946302 4.809757 0.700757
v -0.986302 4.769757 0.700757
v -0.946302 0.002631 -0.700904
v -0.986302 0.042631 -0.700904
v -0.946302 0.042631 -0.740904
v -0.946302 4.809757 -0.700905
v -0.946302 4.769757 -0.740905
v -0.986302 4.769757 -0.700905
v 0.973698 0.002631 0.700758
v 1.013698 0.042631 0.700758
v 0.973698 0.042632 0.740758
v 0.973698 4.809757 0.700757
v 0.973698 4.769758 0.740757
v 1.013698 4.769757 0.700757
v 0.973698 0.042631 -0.740904
v 1.013698 0.042631 -0.700904
v 0.973698 0.002631 -0.700904
v 0.973698 4.769757 -0.740905
v 0.973698 4.809757 -0.700905
v 1.013698 4.769757 -0.700905
v -0.986302 1.348099 0.700758
v -0.946302 1.348099 0.740758
v -0.946302 1.348099 -0.740904
v -0.986302 1.348099 -0.700904
v 1.013698 1.348099 -0.700904
v 0.973698 1.348099 -0.740904
v 0.973698 1.348099 0.740758
v 1.013698 1.348099 0.700758
v -0.986302 0.880107 -0.700904
v -0.946302 0.880107 -0.740904
v 0.973698 0.880107 -0.740904
v 1.013698 0.880107 -0.700904
v 1.013698 0.880107 0.700758
v 0.973698 0.880107 0.740758
v -0.986302 0.880107 0.700758
v -0.946302 0.880107 0.740758
v -0.463294 0.042631 -0.740904
v -0.463294 0.002631 -0.700904
v -0.463294 4.809757 -0.700905
v -0.463294 4.769757 -0.740905
v -0.463294 0.002631 0.700758
v -0.463294 0.042632 0.740758
v -0.463294 4.769758 0.740757
v -0.463294 4.809757 0.700757
v -0.423294 1.348099 0.700758
v -0.503294 1.388099 0.740758
v -0.463294 1.308099 0.700758
v -0.423413 0.871341 0.701730
v -0.463416 0.912119 0.700758
v -0.503294 0.840107 0.740758
v 0.396603 4.769757 -0.740905
v 0.396603 4.809757 -0.700905
v 0.396603 0.042632 0.740758
v 0.396603 0.002631 0.700758
v 0.396603 0.042631 -0.740904
v 0.396603 0.002631 -0.700904
v 0.396603 4.769758 0.740757
v 0.396603 4.809757 0.700757
v 0.356603 1.348099 0.700758
v 0.396603 1.308099 0.700758
v 0.436603 1.388099 0.740758
v 0.356484 0.871341 0.701730
v 0.436603 0.840107 0.740758
v 0.396481 0.912119 0.700758
v 0.356603 1.348099 0.515276
v 0.356519 1.309096 0.466401
v 0.396517 1.308099 0.507197
v -0.423294 1.348099 0.515276
v -0.463380 1.308099 0.507197
v -0.423378 1.309096 0.466401
v 0.355524 0.800820 0.387772
v 0.395630 0.844970 0.401809
v 0.355489 0.831057 0.357620
v -0.424373 0.800820 0.387772
v -0.424408 0.831057 0.357620
v -0.464267 0.844970 0.401809
vn -0.0000 0.9239 -0.3827
vn -0.3416 0.8756 -0.3416
vn -0.3416 0.8756 0.3416
vn -0.0000 0.9239 0.3827
vn -0.9239 -0.0000 0.3827
vn -0.9239 -0.0000 -0.3827
vn 0.3827 -0.0000 0.9239
vn 0.3416 0.3416 0.8756
vn -0.0000 0.3827 0.9239
vn -0.0990 -0.0991 0.9901
vn -0.8756 0.3416 0.3416
vn -0.8756 0.3416 -0.3416
vn 0.3416 0.8756 -0.3416
vn 0.3416 0.8756 0.3416
vn -0.3416 -0.3416 -0.8756
vn -0.3827 -0.0000 -0.9239
vn -0.0000 -0.0000 -1.0000
vn -0.0000 -0.3827 -0.9239
vn 0.3827 -0.0000 -0.9239
vn -0.1078 0.1036 0.9888
vn 0.1078 0.1038 0.9887
vn 0.0992 -0.0991 0.9901
vn -0.3827 -0.0000 0.9239
vn -0.0000 -0.3827 0.9239
vn -0.3416 -0.3416 0.8756
vn -0.0000 0.3827 -0.9239
vn 0.3416 0.3416 -0.8756
vn 0.3416 -0.3416 0.8756
vn -0.3416 0.3416 0.8756
vn -0.3416 0.3416 -0.8756
vn 0.9239 -0.0000 -0.3827
vn 0.9239 -0.0000 0.3827
vn 0.8272 -0.2554 0.5006
vn 0.8531 0.2423 0.4621
vn 0.9132 0.2880 0.2883
vn 0.8678 -0.3892 0.3091
vn -0.8756 -0.3416 0.3416
vn -0.8756 -0.3416 -0.3416
vn -0.2550 -0.8268 0.5014
vn 0.2548 -0.8270 0.5012
vn 0.3373 -0.8963 0.2880
vn -0.3380 -0.8960 0.2881
vn 0.8756 -0.3416 -0.3416
vn 0.8756 -0.3416 0.3416
vn 0.3416 -0.3416 -0.8756
vn 0.8756 0.3416 -0.3416
vn 0.8756 0.3416 0.3416
vn -0.0000 -0.9239 -0.3827
vn -0.0000 -0.9239 0.3827
vn 0.3416 -0.8756 -0.3416
vn 0.3416 -0.8756 0.3416
vn -0.3734 0.2580 0.8911
vn -0.3377 -0.4792 0.8101
vn 0.3375 -0.4802 0.8096
vn 0.3750 0.2574 0.8906
vn 0.2753 0.8905 0.3623
vn -0.2755 0.8899 0.3635
vn -0.3736 0.8902 0.2608
vn 0.3748 0.8900 0.2596
vn -0.8516 0.2427 0.4647
vn -0.8266 -0.2544 0.5020
vn -0.8679 -0.3875 0.3108
vn -0.9117 0.2898 0.2911
vn -0.3416 -0.8756 0.3416
vn -0.3416 -0.8756 -0.3416
vt 0.399573 0.994667
vt 0.292471 0.994322
vt 0.290428 0.813229
vt 0.397530 0.813574
vt 0.016166 0.693521
vt 0.016333 0.634148
vt 0.263201 0.634148
vt 0.263034 0.693521
vt 0.721422 0.364305
vt 0.720057 0.798386
vt 0.590451 0.798408
vt 0.600783 0.369400
vt 0.016333 0.634148
vt 0.017553 0.200050
vt 0.264421 0.200050
vt 0.718211 0.995690
vt 0.590246 0.995279
vt 0.588203 0.814186
vt 0.716168 0.814597
vt 0.371205 0.144226
vt 0.371206 0.128706
vt 0.403815 0.128706
vt 0.403815 0.144226
vt 0.371206 0.120032
vt 0.403815 0.120032
vt 0.461870 0.128706
vt 0.461870 0.120032
vt 0.500832 0.120032
vt 0.500832 0.128706
vt 0.721609 0.304934
vt 0.721422 0.364305
vt 0.600783 0.369400
vt 0.601002 0.299881
vt 0.389916 0.299917
vt 0.389697 0.369437
vt 0.290221 0.364380
vt 0.290408 0.305009
vt 0.399218 0.198746
vt 0.389916 0.299917
vt 0.290742 0.198764
vt 0.461870 0.056620
vt 0.500832 0.056620
vt 0.721943 0.198690
vt 0.601002 0.299881
vt 0.592337 0.198712
vt 0.389697 0.369437
vt 0.397332 0.798442
vt 0.288856 0.798460
vt 0.290221 0.364380
vt 0.371206 0.120032
vt 0.371206 0.056620
vt 0.403815 0.056620
vt 0.738139 0.697749
vt 0.737805 0.637079
vt 0.994038 0.637079
vt 0.994372 0.697749
vt 0.398712 0.359486
vt 0.398868 0.309985
vt 0.398869 0.309684
vt 0.398711 0.359838
vt 0.015868 0.799769
vt 0.016166 0.693521
vt 0.262735 0.799769
vt 0.582833 0.364329
vt 0.407680 0.364359
vt 0.407680 0.364359
vt 0.582833 0.364329
vt 0.738736 0.806317
vt 0.994969 0.806317
vt 0.461870 0.144226
vt 0.500832 0.144226
vt 0.735365 0.193502
vt 0.991598 0.193502
vt 0.604523 0.143235
vt 0.546468 0.143235
vt 0.546468 0.058956
vt 0.604523 0.058956
vt 0.546468 0.143235
vt 0.507506 0.143235
vt 0.507506 0.058956
vt 0.546468 0.058956
vt 0.590246 0.995279
vt 0.399573 0.994667
vt 0.397530 0.813574
vt 0.588203 0.814186
vt 0.601002 0.299881
vt 0.399218 0.198746
vt 0.583006 0.309123
vt 0.582846 0.360164
vt 0.407693 0.360195
vt 0.407854 0.309153
vt 0.407867 0.304989
vt 0.583019 0.304958
vt 0.583019 0.304958
vt 0.407867 0.304989
vt 0.591987 0.309952
vt 0.591831 0.359453
vt 0.591830 0.359804
vt 0.591988 0.309651
vt 0.637133 0.058956
vt 0.637133 0.056551
vt 0.639834 0.058956
vt 0.290369 0.808062
vt 0.281558 0.813201
vt 0.637133 0.143235
vt 0.639834 0.143235
vt 0.637133 0.145640
vt 0.292529 0.999490
vt 0.283601 0.994294
vt 0.504806 0.058956
vt 0.507506 0.056551
vt 0.716110 0.809429
vt 0.725038 0.814626
vt 0.507506 0.145640
vt 0.504806 0.143235
vt 0.718270 1.000858
vt 0.727081 0.995719
vt 0.279872 0.798462
vt 0.281238 0.364381
vt 0.283601 0.994294
vt 0.368505 0.144226
vt 0.368505 0.128706
vt 0.604523 0.143235
vt 0.604523 0.145640
vt 0.590305 1.000447
vt 0.731424 0.806317
vt 0.730827 0.697749
vt 0.504806 0.143235
vt 1.001684 0.697749
vt 1.002282 0.806317
vt 0.546468 0.056551
vt 0.290369 0.808061
vt 0.397472 0.808406
vt 0.281424 0.305010
vt 0.368505 0.120032
vt 0.368505 0.056620
vt 0.730493 0.637079
vt 0.728053 0.193502
vt 0.998910 0.193502
vt 1.001351 0.637079
vt 0.281758 0.198766
vt 0.546468 0.145640
vt 0.399631 0.999835
vt 0.604523 0.058956
vt 0.604523 0.056551
vt 0.588145 0.809018
s 1
usemtl Fridge_/_Coca-Cola
f 47/1/1 14/2/2 9/3/3 52/4/4
f 43/5/5 29/6/5 32/7/6 37/8/6
f 35/9/7 21/10/8 65/11/9 69/12/10
f 29/13/5 10/14/11 16/15/12 32/7/6
f 27/16/13 60/17/1 66/18/4 20/19/14
f 13/20/15 38/21/16 2/22/17 45/23/18
f 38/21/16 31/24/16 1/25/17 2/22/17
f 4/26/17 3/27/17 34/28/19 39/29/19
f 42/30/7 35/31/7 69/32/10 71/33/20
f 58/34/21 54/35/22 30/36/23 44/37/23
f 50/38/24 58/39/21 44/37/23 6/40/25
f 3/27/17 59/41/26 26/42/27 34/28/19
f 19/43/28 42/30/7 71/44/20 61/45/24
f 54/46/22 51/47/9 8/48/29 30/49/23
f 69/32/10 65/11/9 51/47/9 54/35/22
f 31/50/16 15/51/30 48/52/26 1/25/17
f 40/53/31 33/54/31 36/55/32 41/56/32
f 55/57/33 57/58/34 84/59/35 77/60/36
f 1/25/17 48/52/26 59/41/26 3/27/17
f 7/61/37 43/62/5 37/8/6 12/63/38
f 67/64/39 53/65/40 76/66/41 73/67/42
f 24/68/43 40/53/31 41/56/32 18/69/44
f 63/70/18 4/26/17 39/29/19 23/71/45
f 33/54/31 28/72/46 22/73/47 36/55/32
f 46/74/48 64/75/48 62/76/49 49/77/49
f 64/78/48 25/79/50 17/80/51 62/81/49
f 60/82/1 47/83/1 52/84/4 66/85/4
f 2/22/17 1/25/17 3/27/17 4/26/17
f 45/23/18 2/22/17 4/26/17 63/70/18
f 61/45/24 71/86/20 58/34/21 50/87/24
f 81/88/52 74/89/53 78/90/54 83/91/55
f 56/92/56 70/93/57 79/94/58 82/95/59
f 72/96/60 68/97/61 75/98/62 80/99/63
f 5/100/64 6/101/25 7/102/37
f 8/103/29 9/3/3 10/104/11
f 11/105/65 12/106/38 13/107/15
f 14/2/2 15/108/30 16/109/12
f 17/80/51 18/110/44 19/111/28
f 20/19/14 21/112/8 22/113/47
f 23/114/45 24/115/43 25/79/50
f 26/116/27 27/16/13 28/117/46
f 53/65/40 54/35/22 55/57/33
f 56/92/56 57/58/34 58/34/21
f 67/64/39 68/97/61 69/32/10
f 70/93/57 71/33/20 72/96/60
f 73/67/42 74/89/53 75/98/62
f 76/66/41 77/60/36 78/90/54
f 79/94/58 80/99/63 81/88/52
f 82/95/59 83/91/55 84/59/35
f 11/105/65 5/100/64 7/102/37 12/106/38
f 30/49/23 8/48/29 10/118/11 29/119/5
f 9/3/3 14/2/2 16/120/12 10/104/11
f 38/21/16 13/20/15 12/121/38 37/122/6
f 46/123/48 11/105/65 13/107/15 45/124/18
f 60/17/1 27/16/13 26/116/27 59/125/26
f 40/53/31 24/68/43 23/126/45 39/127/19
f 17/80/51 25/79/50 24/128/43 18/110/44
f 27/16/13 20/19/14 22/113/47 28/117/46
f 42/129/7 19/130/28 18/69/44 41/56/32
f 62/81/49 17/80/51 19/111/28 61/131/24
f 52/4/4 9/3/3 8/132/29 51/133/9
f 44/37/23 30/36/23 29/119/5 43/134/5
f 15/51/30 31/50/16 32/135/6 16/136/12
f 28/72/46 33/54/31 34/137/19 26/138/27
f 21/139/8 35/140/7 36/55/32 22/73/47
f 31/24/16 38/21/16 37/122/6 32/135/6
f 33/54/31 40/53/31 39/127/19 34/137/19
f 35/140/7 42/129/7 41/56/32 36/55/32
f 6/40/25 44/37/23 43/134/5 7/141/37
f 64/75/48 46/74/48 45/124/18 63/142/18
f 14/2/2 47/1/1 48/143/26 15/108/30
f 5/100/64 49/144/49 50/145/24 6/101/25
f 66/85/4 52/84/4 51/133/9 65/146/9
f 69/32/10 54/35/22 53/65/40 67/64/39
f 70/93/57 56/92/56 58/34/21 71/86/20
f 54/35/22 58/34/21 57/58/34 55/57/33
f 47/83/1 60/82/1 59/125/26 48/143/26
f 49/77/49 62/76/49 61/131/24 50/145/24
f 25/79/50 64/78/48 63/142/18 23/114/45
f 20/19/14 66/18/4 65/146/9 21/112/8
f 68/97/61 72/96/60 71/33/20 69/32/10
f 73/67/42 76/66/41 78/90/54 74/89/53
f 81/88/52 83/91/55 82/95/59 79/94/58
f 77/60/36 84/59/35 83/91/55 78/90/54
f 74/89/53 81/88/52 80/99/63 75/98/62
f 55/57/33 77/60/36 76/66/41 53/65/40
f 75/98/62 68/97/61 67/64/39 73/67/42
f 79/94/58 70/93/57 72/96/60 80/99/63
f 56/92/56 82/95/59 84/59/35 57/58/34
f 11/105/65 46/123/48 49/144/49 5/100/64
