# Blender 5.0.0
# www.blender.org
mtllib Warehouse_2_DefaultMaterial_AlbedoTranspar.mtl
o building_001
v -7.500000 0.000001 5.000000
v 7.500000 0.000001 5.000000
v 7.500000 1.660159 5.000000
v 7.500000 -0.000001 -3.700000
v -7.600000 1.920001 5.099999
v 7.600000 1.920001 5.099999
v 7.600000 2.399999 -3.800000
v -7.600000 2.399999 -3.800000
v -7.600000 2.400000 -3.236098
v -7.600000 2.400000 -0.565050
v 7.600000 2.400000 -0.565050
v 7.600000 2.400000 -3.236098
v 7.500000 0.000000 2.669900
v 7.600000 2.400000 -0.000044
v 7.600000 2.400001 2.669899
v 7.500000 0.000310 -0.000000
v 7.500000 1.920001 2.669900
v 7.500000 1.920000 -0.000000
v 7.500000 0.000000 2.579900
v 7.500000 0.000310 0.090000
v 7.500000 1.830001 2.579900
v 7.500000 1.830000 0.090000
v 7.500000 0.000001 4.394950
v 7.500000 0.000001 3.274950
v 7.600000 2.100001 4.394949
v 7.600000 2.400001 3.274950
v 7.500000 1.660001 4.394949
v -7.600000 2.400000 -0.000000
v 7.500000 0.000001 4.334950
v 7.500000 0.000001 3.334950
v 7.500000 1.660001 3.274950
v -7.600000 2.400001 2.669899
v 7.500000 1.600001 4.334949
v 7.500000 1.600001 3.334950
v -7.600000 2.100001 4.394949
v -7.600000 2.400001 3.274950
v 7.500000 1.660157 -3.700000
v -7.500000 -0.000000 -3.700000
v -7.500000 -0.000000 -3.236097
v -7.500000 0.000000 -0.565050
v -7.500000 0.000000 -0.000000
v -7.500000 0.000001 2.669900
v -7.500000 0.000001 4.394950
v -7.500000 0.000001 3.274950
v -7.500000 1.660159 5.000000
v -7.500000 1.660158 -0.565050
v -7.500000 1.660158 -0.000000
v -7.500000 1.660158 2.669900
v -7.500000 1.660158 3.274950
v -7.500000 1.660158 4.394949
v -7.500000 1.660157 -3.236097
v -7.500000 1.660157 -3.700000
v -7.500000 1.920000 -0.565050
v 7.500000 1.919999 -3.700000
v -7.500000 1.920000 -0.000000
v -7.500000 1.920001 2.669900
v -7.500000 1.920001 3.274950
v -7.500000 1.920001 4.394949
v -7.500000 1.919999 -3.236097
v -7.500000 1.919999 -3.700000
v 7.500000 1.920001 4.394479
v 7.500000 1.920191 3.274950
v 7.500000 1.660621 2.669900
v 7.500000 1.660620 -0.000000
v 7.500000 1.660621 2.579900
v 7.500000 1.660620 0.090000
v 7.500000 -0.000000 -0.565248
v 7.500000 0.000310 -3.235148
v 7.500000 1.920000 -0.565248
v 7.500000 1.920000 -3.235148
v 7.500000 -0.000000 -0.655248
v 7.500000 0.000310 -3.145148
v 7.500000 1.830000 -0.655249
v 7.500000 1.830000 -3.145149
v 7.500000 1.660620 -0.565248
v 7.500000 1.660620 -3.235148
v 7.500000 1.660620 -0.655249
v 7.500000 1.660620 -3.145149
v 7.378246 0.000000 2.579900
v 7.378246 0.000310 0.090000
v 7.378246 1.660621 2.579900
v 7.378246 1.830001 2.579900
v 7.378246 1.660620 0.090000
v 7.378246 1.830000 0.090000
v 7.378246 0.000001 4.334950
v 7.378246 0.000001 3.334950
v 7.378246 1.600001 4.334949
v 7.378246 1.600001 3.334950
v 7.378246 0.000310 -3.145148
v 7.378246 -0.000000 -0.655248
v 7.378246 1.660620 -0.655249
v 7.378246 1.830000 -0.655249
v 7.378246 1.660620 -3.145149
v 7.378246 1.830000 -3.145149
v 7.600000 2.500000 -0.565050
v 7.600000 2.500000 -3.236098
v -7.600000 2.500000 -3.236098
v -7.600000 2.500000 -0.565050
v -7.600000 2.500000 -0.000000
v -7.600000 2.500000 2.669899
v 7.600000 2.500000 2.669899
v 7.600000 2.500000 -0.000044
v 7.600000 2.500000 3.274950
v -7.600000 2.500000 3.274950
v 7.600000 2.200001 4.394949
v -7.600000 2.200001 4.394949
v 7.600000 2.499999 -3.800000
v -7.600000 2.499999 -3.800000
v 7.600000 2.020001 5.099999
v -7.600000 2.020001 5.099999
v -7.500000 2.400001 2.669899
v -7.500000 2.400000 -0.000000
v -7.500000 1.920001 5.000000
v 7.500000 1.920001 5.000000
v 7.500000 2.400000 -3.236098
v 7.500000 2.399999 -3.700000
v -7.500000 2.399999 -3.700000
v -7.500000 2.400001 3.274950
v -7.500000 2.100001 4.394949
v -7.500000 2.400000 -0.565050
v -7.500000 2.400000 -3.236098
v 7.500000 2.400000 -0.565050
v 7.500000 2.400001 3.274950
v 7.500000 2.400001 2.669899
v 7.500000 2.400000 -0.000044
v 7.500000 2.100001 4.394949
vn -0.0000 -0.0000 -1.0000
vn 1.0000 -0.0000 -0.0000
vn -1.0000 -0.0000 -0.0000
vn -0.0000 -0.0000 1.0000
vn -0.0000 -1.0000 -0.0000
vn -0.0000 -0.9659 -0.2587
vn 0.0247 -0.9593 -0.2813
vn 0.2243 -0.9436 -0.2436
vn -0.0000 -0.9585 -0.2851
vn -0.0247 -0.9593 -0.2813
vn -0.2243 -0.9436 -0.2436
vn -0.2401 -0.9406 -0.2401
vn -0.0000 0.9659 0.2587
vn -0.0000 0.9675 0.2531
vn -0.0000 0.9689 0.2474
vn -0.0000 1.0000 -0.0000
vn 0.2401 -0.9406 -0.2401
vt 0.788955 0.623849
vt 0.769071 0.002493
vt 0.788955 0.002493
vt 0.033121 0.844239
vt 0.026105 0.840511
vt 0.033121 0.840511
vt 0.033121 0.733642
vt 0.026105 0.737370
vt 0.022377 0.733642
vt 0.022377 0.844239
vt 0.101910 0.708578
vt 0.035632 0.706093
vt 0.101910 0.706093
vt 0.101910 0.662184
vt 0.035632 0.664669
vt 0.033147 0.662184
vt 0.380114 0.703398
vt 0.375071 0.637120
vt 0.380114 0.637120
vt 0.799718 0.758697
vt 0.868488 0.782103
vt 0.799718 0.782103
vt 0.868488 0.892701
vt 0.799718 0.892701
vt 0.868488 0.917764
vt 0.799718 0.917764
vt 0.799718 0.964159
vt 0.868488 0.989222
vt 0.799718 0.989222
vt 0.799718 0.648052
vt 0.868488 0.758697
vt 0.868488 0.964159
vt 0.799718 0.628836
vt 0.868488 0.648052
vt 0.788955 0.628836
vt 0.788955 0.648052
vt 0.788955 0.964159
vt 0.788955 0.758697
vt 0.788955 0.989222
vt 0.788955 0.892701
vt 0.788955 0.917764
vt 0.788955 0.782103
vt 0.953008 0.623849
vt 0.884238 0.002493
vt 0.953008 0.002493
vt 0.868488 0.623849
vt 0.799718 0.002493
vt 0.868488 0.002493
vt 0.769071 0.758697
vt 0.769071 0.782103
vt 0.769071 0.892701
vt 0.769071 0.917764
vt 0.781498 0.964159
vt 0.769071 0.648052
vt 0.769071 0.628836
vt 0.884238 0.623849
vt 0.873475 0.002493
vt 0.799718 0.623849
vt 0.101910 0.637120
vt 0.033140 0.637120
vt 0.014920 0.662184
vt 0.022377 0.637120
vt 0.022377 0.662203
vt 0.022369 0.708578
vt 0.002493 0.708578
vt 0.002493 0.733642
vt 0.293584 0.712926
vt 0.288540 0.644137
vt 0.293584 0.644137
vt 0.101910 0.737370
vt 0.101910 0.733642
vt 0.033147 0.708578
vt 0.002493 0.844241
vt 0.101897 0.844239
vt 0.101897 0.840511
vt 0.033121 0.978251
vt 0.026105 0.974523
vt 0.033121 0.974523
vt 0.033121 0.867654
vt 0.026105 0.871382
vt 0.022377 0.867654
vt 0.308600 0.644137
vt 0.313644 0.712913
vt 0.308600 0.712913
vt 0.273524 0.740104
vt 0.268481 0.637120
vt 0.273524 0.637120
vt 0.101910 0.871382
vt 0.101910 0.867654
vt 0.101897 0.978251
vt 0.101897 0.974523
vt 0.002493 0.867645
vt 0.022377 0.997507
vt 0.033140 0.997507
vt 0.002493 0.978290
vt 0.002493 0.997507
vt 0.022377 0.978251
vt 0.101910 0.997507
vt 0.194705 0.740261
vt 0.187689 0.637120
vt 0.194705 0.637120
vt 0.328660 0.703398
vt 0.370084 0.637120
vt 0.370084 0.703398
vt 0.263481 0.740261
vt 0.263494 0.637120
vt 0.113913 0.740261
vt 0.106897 0.637120
vt 0.113913 0.637120
vt 0.182689 0.740261
vt 0.182702 0.637120
vt 0.318630 0.644137
vt 0.323674 0.712913
vt 0.318630 0.712913
vt 0.385101 0.637120
vt 0.390144 0.703398
vt 0.385101 0.703398
vt 0.288540 0.637120
vt 0.293584 0.637120
vt 0.400174 0.678481
vt 0.395131 0.637120
vt 0.400174 0.637120
vt 0.318630 0.637120
vt 0.323674 0.644137
vt 0.283554 0.740104
vt 0.278510 0.637120
vt 0.283554 0.637120
vt 0.303614 0.644137
vt 0.298570 0.637120
vt 0.303614 0.637120
vt 0.308600 0.637120
vt 0.313644 0.644137
vt 0.303614 0.712926
vt 0.298570 0.644137
vt 0.295116 0.632134
vt 0.342127 0.627991
vt 0.342127 0.632134
vt 0.002493 0.002493
vt 0.006629 0.627991
vt 0.002493 0.632134
vt 0.025816 0.002493
vt 0.006629 0.006636
vt 0.371700 0.632134
vt 0.367564 0.006636
vt 0.371700 0.002493
vt 0.136292 0.632134
vt 0.159663 0.627991
vt 0.159663 0.632134
vt 0.270091 0.627991
vt 0.270091 0.632134
vt 0.295116 0.627991
vt 0.963202 0.644850
vt 0.963782 0.534177
vt 0.967920 0.534353
vt 0.963867 0.342358
vt 0.962131 0.371700
vt 0.957995 0.371923
vt 0.966472 0.159896
vt 0.976564 0.270112
vt 0.972428 0.270335
vt 0.973778 0.295362
vt 0.968004 0.342135
vt 0.973639 0.400424
vt 0.970496 0.376910
vt 0.974635 0.377086
vt 0.962133 0.669890
vt 0.968431 0.716596
vt 0.957995 0.669714
vt 0.754956 0.632134
vt 0.750813 0.002493
vt 0.754956 0.002493
vt 0.964780 0.510791
vt 0.968919 0.510968
vt 0.972570 0.716773
vt 0.974635 0.746093
vt 0.965211 0.136526
vt 0.970608 0.159673
vt 0.957995 0.002716
vt 0.963389 0.025818
vt 0.959253 0.026041
vt 0.969500 0.400247
vt 0.764085 0.632134
vt 0.759942 0.002493
vt 0.764085 0.002493
vt 0.969348 0.136302
vt 0.959064 0.644673
vt 0.977914 0.295139
vt 0.025817 0.632134
vt 0.136292 0.627991
vt 0.136292 0.002493
vt 0.025816 0.006636
vt 0.295116 0.002493
vt 0.270091 0.006636
vt 0.270091 0.002493
vt 0.159661 0.006636
vt 0.159661 0.002493
vt 0.342127 0.002493
vt 0.342127 0.006636
vt 0.295116 0.006636
vt 0.025817 0.627991
vt 0.367564 0.627991
vt 0.136292 0.006636
vt 0.668980 0.002493
vt 0.716156 0.632134
vt 0.668980 0.632134
vt 0.716156 0.002493
vt 0.745827 0.632134
vt 0.643983 0.002493
vt 0.643983 0.632134
vt 0.533679 0.002493
vt 0.533677 0.632134
vt 0.510335 0.002493
vt 0.510335 0.632134
vt 0.399983 0.002493
vt 0.399983 0.632134
vt 0.376686 0.632134
vt 0.769071 0.623849
vt 0.033121 0.737370
vt 0.101910 0.664669
vt 0.375071 0.703398
vt 0.868488 0.628836
vt 0.873475 0.623849
vt 0.288540 0.712926
vt 0.033121 0.871382
vt 0.268481 0.740104
vt 0.187689 0.740261
vt 0.328660 0.637120
vt 0.106897 0.740261
vt 0.390144 0.637120
vt 0.395131 0.678481
vt 0.323674 0.637120
vt 0.278510 0.740104
vt 0.313644 0.637120
vt 0.298570 0.712926
vt 0.750813 0.632134
vt 0.978774 0.746270
vt 0.962131 0.002493
vt 0.759942 0.632134
vt 0.745827 0.002493
vt 0.376686 0.002493
s 1
usemtl Material.001
f 60/1/1 116/2/1 54/3/1
f 64/4/2 22/5/2 66/6/2
f 63/7/2 21/8/2 17/9/2
f 21/8/2 18/10/2 17/9/2
f 24/11/2 34/12/2 30/13/2
f 23/14/2 33/15/2 27/16/2
f 34/12/2 27/16/2 33/15/2
f 29/17/1 87/18/1 33/19/1
f 46/20/3 41/21/3 47/22/3
f 47/22/3 42/23/3 48/24/3
f 48/24/3 44/25/3 49/26/3
f 50/27/3 1/28/3 45/29/3
f 51/30/3 40/31/3 46/20/3
f 49/26/3 43/32/3 50/27/3
f 52/33/3 39/34/3 51/30/3
f 60/35/3 51/30/3 59/36/3
f 58/37/3 49/26/3 50/27/3
f 59/36/3 46/20/3 53/38/3
f 58/37/3 45/29/3 113/39/3
f 56/40/3 49/26/3 57/41/3
f 55/42/3 48/24/3 56/40/3
f 53/38/3 47/22/3 55/42/3
f 2/43/4 45/44/4 1/45/4
f 38/46/1 37/47/1 4/48/1
f 120/49/3 55/42/3 112/50/3
f 112/50/3 56/40/3 111/51/3
f 111/51/3 57/41/3 118/52/3
f 113/39/3 119/53/3 58/37/3
f 121/54/3 53/38/3 120/49/3
f 119/53/3 57/41/3 58/37/3
f 117/55/3 59/36/3 121/54/3
f 3/56/4 113/57/4 45/44/4
f 52/58/1 54/3/1 37/47/1
f 2/59/2 27/16/2 3/60/2
f 126/61/2 114/62/2 61/63/2
f 114/62/2 27/16/2 61/63/2
f 126/61/2 62/64/2 123/65/2
f 62/64/2 124/66/2 123/65/2
f 19/67/1 81/68/1 65/69/1
f 19/70/2 63/7/2 13/71/2
f 31/72/2 61/63/2 27/16/2
f 62/64/2 63/7/2 17/9/2
f 31/72/2 13/71/2 63/7/2
f 124/66/2 18/10/2 125/73/2
f 16/74/2 66/6/2 20/75/2
f 76/76/2 74/77/2 78/78/2
f 75/79/2 73/80/2 69/81/2
f 74/77/2 69/81/2 73/80/2
f 78/82/4 89/83/4 72/84/4
f 73/85/5 94/86/5 74/87/5
f 71/88/2 75/79/2 67/89/2
f 68/90/2 78/78/2 72/91/2
f 18/10/2 122/92/2 125/73/2
f 64/4/2 69/81/2 18/10/2
f 16/74/2 75/79/2 64/4/2
f 54/93/2 76/76/2 37/94/2
f 115/95/2 54/93/2 116/96/2
f 122/92/2 70/97/2 115/95/2
f 37/94/2 68/90/2 4/98/2
f 83/99/2 82/100/2 81/101/2
f 86/102/2 87/103/2 85/104/2
f 80/105/2 81/101/2 79/106/2
f 93/107/2 92/108/2 91/109/2
f 89/110/2 91/109/2 90/111/2
f 66/112/4 80/113/4 20/114/4
f 34/115/4 86/116/4 30/117/4
f 65/69/1 82/118/1 21/119/1
f 33/120/5 88/121/5 34/122/5
f 22/123/4 83/124/4 66/112/4
f 21/125/5 84/126/5 22/127/5
f 77/128/1 92/129/1 73/130/1
f 74/131/4 93/132/4 78/82/4
f 71/133/1 91/134/1 77/128/1
f 36/135/6 119/136/6 35/137/6
f 7/138/5 117/139/5 8/140/5
f 12/141/5 116/142/5 7/138/5
f 5/143/5 114/144/5 6/145/5
f 10/146/5 112/147/5 28/148/5
f 28/148/5 111/149/5 32/150/5
f 32/150/5 118/151/5 36/135/5
f 32/152/3 99/153/3 28/154/3
f 25/155/2 109/156/2 6/157/2
f 14/158/2 101/159/2 15/160/2
f 26/161/2 105/162/2 25/155/2
f 9/163/3 108/164/3 8/165/3
f 36/166/3 106/167/3 104/168/3
f 6/169/4 110/170/4 5/171/4
f 28/154/3 98/172/3 10/173/3
f 35/174/3 110/175/3 106/167/3
f 11/176/2 102/177/2 14/158/2
f 7/178/2 96/179/2 12/180/2
f 10/173/3 97/181/3 9/163/3
f 8/182/1 107/183/1 7/184/1
f 12/180/2 95/185/2 11/176/2
f 36/166/3 100/186/3 32/152/3
f 15/160/2 103/187/2 26/161/2
f 9/188/5 120/189/5 10/146/5
f 11/190/5 115/191/5 12/141/5
f 26/192/5 124/193/5 15/194/5
f 15/194/5 125/195/5 14/196/5
f 25/197/7 114/144/8 126/198/9
f 25/197/6 123/199/6 26/192/6
f 9/188/5 117/139/5 121/200/5
f 35/137/10 113/201/11 5/143/12
f 14/196/5 122/202/5 11/190/5
f 104/203/13 105/204/14 103/205/13
f 106/206/14 109/207/15 105/204/14
f 100/208/16 103/205/16 101/209/16
f 99/210/16 101/209/16 102/211/16
f 98/212/16 102/211/16 95/213/16
f 97/214/16 95/213/16 96/215/16
f 107/216/16 97/214/16 96/215/16
f 60/1/1 117/217/1 116/2/1
f 64/4/2 18/10/2 22/5/2
f 63/7/2 65/218/2 21/8/2
f 21/8/2 22/5/2 18/10/2
f 24/11/2 31/72/2 34/12/2
f 23/14/2 29/219/2 33/15/2
f 34/12/2 31/72/2 27/16/2
f 29/17/1 85/220/1 87/18/1
f 46/20/3 40/31/3 41/21/3
f 47/22/3 41/21/3 42/23/3
f 48/24/3 42/23/3 44/25/3
f 50/27/3 43/32/3 1/28/3
f 51/30/3 39/34/3 40/31/3
f 49/26/3 44/25/3 43/32/3
f 52/33/3 38/221/3 39/34/3
f 60/35/3 52/33/3 51/30/3
f 58/37/3 57/41/3 49/26/3
f 59/36/3 51/30/3 46/20/3
f 58/37/3 50/27/3 45/29/3
f 56/40/3 48/24/3 49/26/3
f 55/42/3 47/22/3 48/24/3
f 53/38/3 46/20/3 47/22/3
f 2/43/4 3/56/4 45/44/4
f 38/46/1 52/58/1 37/47/1
f 120/49/3 53/38/3 55/42/3
f 112/50/3 55/42/3 56/40/3
f 111/51/3 56/40/3 57/41/3
f 121/54/3 59/36/3 53/38/3
f 119/53/3 118/52/3 57/41/3
f 117/55/3 60/35/3 59/36/3
f 3/56/4 114/222/4 113/57/4
f 52/58/1 60/1/1 54/3/1
f 2/59/2 23/14/2 27/16/2
f 114/62/2 3/60/2 27/16/2
f 126/61/2 61/63/2 62/64/2
f 62/64/2 17/9/2 124/66/2
f 19/67/1 79/223/1 81/68/1
f 19/70/2 65/218/2 63/7/2
f 31/72/2 62/64/2 61/63/2
f 62/64/2 31/72/2 63/7/2
f 31/72/2 24/11/2 13/71/2
f 124/66/2 17/9/2 18/10/2
f 16/74/2 64/4/2 66/6/2
f 76/76/2 70/97/2 74/77/2
f 75/79/2 77/224/2 73/80/2
f 74/77/2 70/97/2 69/81/2
f 78/82/4 93/132/4 89/83/4
f 73/85/5 92/225/5 94/86/5
f 71/88/2 77/224/2 75/79/2
f 68/90/2 76/76/2 78/78/2
f 18/10/2 69/81/2 122/92/2
f 64/4/2 75/79/2 69/81/2
f 16/74/2 67/89/2 75/79/2
f 54/93/2 70/97/2 76/76/2
f 115/95/2 70/97/2 54/93/2
f 122/92/2 69/81/2 70/97/2
f 37/94/2 76/76/2 68/90/2
f 83/99/2 84/226/2 82/100/2
f 86/102/2 88/227/2 87/103/2
f 80/105/2 83/99/2 81/101/2
f 93/107/2 94/228/2 92/108/2
f 89/110/2 93/107/2 91/109/2
f 66/112/4 83/124/4 80/113/4
f 34/115/4 88/229/4 86/116/4
f 65/69/1 81/68/1 82/118/1
f 33/120/5 87/230/5 88/121/5
f 22/123/4 84/231/4 83/124/4
f 21/125/5 82/232/5 84/126/5
f 77/128/1 91/134/1 92/129/1
f 74/131/4 94/233/4 93/132/4
f 71/133/1 90/234/1 91/134/1
f 36/135/6 118/151/6 119/136/6
f 7/138/5 116/142/5 117/139/5
f 12/141/5 115/191/5 116/142/5
f 5/143/5 113/201/5 114/144/5
f 10/146/5 120/189/5 112/147/5
f 28/148/5 112/147/5 111/149/5
f 32/150/5 111/149/5 118/151/5
f 32/152/3 100/186/3 99/153/3
f 25/155/2 105/162/2 109/156/2
f 14/158/2 102/177/2 101/159/2
f 26/161/2 103/187/2 105/162/2
f 9/163/3 97/181/3 108/164/3
f 36/166/3 35/174/3 106/167/3
f 6/169/4 109/235/4 110/170/4
f 28/154/3 99/153/3 98/172/3
f 35/174/3 5/236/3 110/175/3
f 11/176/2 95/185/2 102/177/2
f 7/178/2 107/237/2 96/179/2
f 10/173/3 98/172/3 97/181/3
f 8/182/1 108/238/1 107/183/1
f 12/180/2 96/179/2 95/185/2
f 36/166/3 104/168/3 100/186/3
f 15/160/2 101/159/2 103/187/2
f 9/188/5 121/200/5 120/189/5
f 11/190/5 122/202/5 115/191/5
f 26/192/5 123/199/5 124/193/5
f 15/194/5 124/193/5 125/195/5
f 25/197/7 6/145/17 114/144/8
f 25/197/6 126/198/6 123/199/6
f 9/188/5 8/140/5 117/139/5
f 35/137/10 119/136/9 113/201/11
f 14/196/5 125/195/5 122/202/5
f 104/203/13 106/206/14 105/204/14
f 106/206/14 110/239/15 109/207/15
f 100/208/16 104/203/16 103/205/16
f 99/210/16 100/208/16 101/209/16
f 98/212/16 99/210/16 102/211/16
f 97/214/16 98/212/16 95/213/16
f 107/216/16 108/240/16 97/214/16
